<svg xmlns="http://www.w3.org/2000/svg" viewBox="0 0 60 60">
  <!-- Background Circle -->
  <circle cx="30" cy="30" r="30" fill="#2196F3"/>

  <!-- Phone Icon -->
  <path d="M40.7 36.4c-1.3-1.2-3.1-1.2-4.3 0l-2 2c-0.3-0.2-0.7-0.4-1-0.5c-2.3-1.2-5.4-2.8-8.7-6.1s-4.9-6.4-6.1-8.7c-0.2-0.3-0.4-0.7-0.5-1l2-2c1.2-1.2 1.2-3 0-4.3l-4.3-4.3c-1.2-1.2-3.1-1.2-4.3 0l-1.8 1.8c-0.9 0.9-1.4 2.1-1.5 3.3c-0.2 3.1 0.6 6 2.5 9.3c2.2 3.9 5.2 7.5 9.1 11.4s7.5 6.9 11.4 9.1c3.3 1.9 6.2 2.7 9.3 2.5c1.2-0.1 2.4-0.6 3.3-1.5l1.8-1.8c1.2-1.2 1.2-3 0-4.3l-4.3-4.3z"
        fill="white"/>
</svg>
